<?xml version="1.0" encoding="UTF-8" standalone="no"?>
<!-- Created with Inkscape (http://www.inkscape.org/) -->

<svg
   xmlns:dc="http://purl.org/dc/elements/1.1/"
   xmlns:cc="http://creativecommons.org/ns#"
   xmlns:rdf="http://www.w3.org/1999/02/22-rdf-syntax-ns#"
   xmlns:svg="http://www.w3.org/2000/svg"
   xmlns="http://www.w3.org/2000/svg"
   xmlns:sodipodi="http://sodipodi.sourceforge.net/DTD/sodipodi-0.dtd"
   xmlns:inkscape="http://www.inkscape.org/namespaces/inkscape"
   width="297mm"
   height="297mm"
   viewBox="0 0 297 297"
   version="1.1"
   id="svg8"
   inkscape:version="0.92.3 (2405546, 2018-03-11)"
   sodipodi:docname="logo4.svg"
   inkscape:export-filename="C:\work\logo4.png"
   inkscape:export-xdpi="123.86"
   inkscape:export-ydpi="123.86">
  <defs
     id="defs2" />
  <sodipodi:namedview
     id="base"
     pagecolor="#ffffff"
     bordercolor="#666666"
     borderopacity="1.0"
     inkscape:pageopacity="0.0"
     inkscape:pageshadow="2"
     inkscape:zoom="1.4"
     inkscape:cx="588.42443"
     inkscape:cy="551.75315"
     inkscape:document-units="mm"
     inkscape:current-layer="layer1"
     showgrid="false"
     inkscape:window-width="3840"
     inkscape:window-height="2004"
     inkscape:window-x="-16"
     inkscape:window-y="-16"
     inkscape:window-maximized="1" />
  <metadata
     id="metadata5">
    <rdf:RDF>
      <cc:Work
         rdf:about="">
        <dc:format>image/svg+xml</dc:format>
        <dc:type
           rdf:resource="http://purl.org/dc/dcmitype/StillImage" />
        <dc:title />
      </cc:Work>
    </rdf:RDF>
  </metadata>
  <g
     inkscape:label="Layer 1"
     inkscape:groupmode="layer"
     id="layer1">
    <text
       xml:space="preserve"
       style="font-style:normal;font-weight:normal;font-size:35.27777863px;line-height:1.25;font-family:sans-serif;letter-spacing:0px;word-spacing:0px;fill:#000000;fill-opacity:1;stroke:none;stroke-width:0.26458332"
       x="31.003265"
       y="158.28711"
       id="text4532"><tspan
         sodipodi:role="line"
         id="tspan4530"
         x="31.003265"
         y="158.28711"
         style="font-size:35.27777863px;stroke-width:0.26458332">access  b  ld</tspan></text>
    <path
       id="path4544-7"
       d="m 212.1903,134.65399 v -3.60678 c 1e-5,-1.992 -1.51329,-3.60685 -3.38004,-3.60685 h -1.69002 v -5.41024 h -3.38004 v 5.41024 h -1.69002 c -1.86675,0 -3.38005,1.61485 -3.38004,3.60685 v 3.60678 c -1.86675,0 -3.38005,1.61485 -3.38004,3.60686 v 1.80338 l 0.27972,17.94849 c 4.79034,0.0857 -2.61228,0.0857 4.79034,0.0857 v -3.60684 h 3.38004 v 3.60685 h 3.38004 v -3.60685 h 3.38004 v 3.60685 h 5.07007 v -19.83757 c 1e-5,-1.99201 -1.51329,-3.60686 -3.38005,-3.60686 m -8.4501,16.23074 h -3.38004 v -3.6068 h 3.38004 v 3.6068 m 0,-7.21364 h -3.38004 v -3.60686 h 3.38004 v 3.60686 m -1.69002,-9.0171 v -3.60678 h 6.76008 v 3.60678 h -6.76008 m 8.4501,16.23074 h -3.38004 v -3.6068 h 3.38004 v 3.6068 m 0,-7.21364 h -3.38004 v -3.60686 h 3.38004 z"
       inkscape:connector-curvature="0"
       style="stroke-width:1.74579668"
       sodipodi:nodetypes="ccscccccccccccccccccccccccccccccccccccccccccccccc" />
    <path
       id="path4544-7-5"
       d="m 167.02198,134.91852 v -3.60678 c 10e-6,-1.992 -1.51329,-3.60685 -3.38004,-3.60685 h -1.69002 v -5.41024 h -3.38004 v 5.41024 h -1.69002 c -1.86675,0 -3.38005,1.61485 -3.38004,3.60685 v 3.60678 c -1.86675,0 -3.38005,1.61485 -3.38004,3.60686 v 1.80338 l 0.27972,17.94849 c 4.79034,0.0857 -2.61228,0.0857 4.79034,0.0857 v -3.60684 h 3.38004 v 3.60685 h 3.38004 v -3.60685 h 3.38004 v 3.60685 h 5.07007 v -19.83757 c 1e-5,-1.99201 -1.51329,-3.60686 -3.38005,-3.60686 m -8.4501,16.23074 h -3.38004 v -3.6068 h 3.38004 v 3.6068 m 0,-7.21364 h -3.38004 v -3.60686 h 3.38004 v 3.60686 m -1.69002,-9.0171 v -3.60678 h 6.76008 v 3.60678 h -6.76008 m 8.4501,16.23074 h -3.38004 v -3.6068 h 3.38004 v 3.6068 m 0,-7.21364 h -3.38004 v -3.60686 h 3.38004 z"
       inkscape:connector-curvature="0"
       style="stroke-width:1.74579668"
       sodipodi:nodetypes="ccscccccccccccccccccccccccccccccccccccccccccccccc" />
    <rect
       style="fill:#f7ff0c;fill-opacity:1;stroke-width:0.26458332"
       id="rect819"
       width="6.7600803"
       height="3.6067801"
       x="156.88187"
       y="131.31175" />
    <rect
       style="fill:#f7ff0c;fill-opacity:1;stroke-width:0.26458332"
       id="rect819-1"
       width="6.7600803"
       height="3.6067801"
       x="202.05017"
       y="131.04723" />
  </g>
</svg>
